
<svg width="64" height="64" xmlns="http://www.w3.org/2000/svg">
 <!-- Created with Method Draw - http://github.com/duopixel/Method-Draw/ -->
 <g>
  <title>background</title>
  <rect fill="#fff" id="canvas_background" height="66" width="66" y="-1" x="-1"/>
  <g display="none" overflow="visible" y="0" x="0" height="100%" width="100%" id="canvasGrid">
   <rect fill="url(#gridpattern)" stroke-width="0" y="0" x="0" height="100%" width="100%"/>
  </g>
 </g>
 <g>
  <title>Layer 1</title>
  <rect stroke="#fff" id="svg_1" height="11" width="3" y="0" x="31" stroke-width="0" fill="#000"/>
  <!-- <ellipse stroke="#000" ry="3" rx="3" id="svg_2" cy="33" cx="57" stroke-width="1.5" fill="#fff"/> -->
  <rect id="svg_4" height="3" width="5" y="31" x="60" fill-opacity="null" stroke-opacity="null" stroke-width="0" stroke="#fff" fill="#000"/>
  <rect stroke="#fff" id="svg_6" height="3" width="28.571411" y="31" x="0.002116" stroke-width="0" fill="#000"/>
  <rect stroke="#fff" id="svg_7" height="3" width="24.675302" y="8" x="8" stroke-width="0" fill="#000"/>
  <rect id="svg_8" height="14.204533" width="3" y="11" x="8" fill-opacity="null" stroke-opacity="null" stroke-width="0" stroke="#fff" fill="#000"/>
  <rect stroke="#fff" id="svg_9" height="3" width="18.028877" y="24" x="8" fill-opacity="null" stroke-opacity="null" stroke-width="0" fill="#000"/>
  <path stroke="#000" id="svg_8" d="m27.742889,16.183352l15.471542,0l0,0c8.544698,0 15.471542,6.715661 15.471542,14.999849c0,8.284189 -6.926844,14.999849 -15.471542,14.999849l-15.471542,0l0,-29.999697z" fill-opacity="null" stroke-opacity="null" stroke-width="1.5" fill="#fff"/>
  </g>
</svg>